<?xml version="1.0" encoding="utf-8"?>
<!-- Generator: Adobe Illustrator 26.0.3, SVG Export Plug-In . SVG Version: 6.00 Build 0)  -->
<svg version="1.1" id="Layer_1" focusable="false" xmlns="http://www.w3.org/2000/svg" xmlns:xlink="http://www.w3.org/1999/xlink"
	 x="0px" y="0px" viewBox="0 0 448 512" style="enable-background:new 0 0 448 512;" xml:space="preserve">
<style type="text/css">
	.st0{fill:#667CAF;}
</style>
<path class="st0" d="M64,224h13.5c24.7,56.5,80.9,96,146.5,96s121.8-39.5,146.5-96H384c8.8,0,16-7.2,16-16v-96c0-8.8-7.2-16-16-16
	h-13.5C345.8,39.5,289.6,0,224,0S102.2,39.5,77.5,96H64c-8.8,0-16,7.2-16,16v96C48,216.8,55.2,224,64,224z M104,136
	c0-22.1,21.5-40,48-40h144c26.5,0,48,17.9,48,40v24c0,53-43,96-96,96h-48c-53,0-96-43-96-96V136z M176,208l12-36l36-12l-36-12
	l-12-36l-12,36l-36,12l36,12L176,208z M327.6,321.4C297.7,340.7,262.2,352,224,352s-73.7-11.3-103.6-30.6C52.9,328.5,0,385,0,454.4
	v9.6c0,26.5,21.5,48,48,48h80v-64c0-17.7,14.3-32,32-32h128c17.7,0,32,14.3,32,32v64h80c26.5,0,48-21.5,48-48v-9.6
	C448,385,395.1,328.5,327.6,321.4z M272,448c-8.8,0-16,7.2-16,16s7.2,16,16,16s16-7.2,16-16S280.8,448,272,448z M176,448
	c-8.8,0-16,7.2-16,16v48h32v-48C192,455.2,184.8,448,176,448z"/>
</svg>
